<svg xmlns="http://www.w3.org/2000/svg" width="24" height="29" viewBox="0 0 24 29">
  <defs>
    <style>
      .cls-1 {
        fill: #fff;
        fill-rule: evenodd;
        opacity: 0.6;
      }
    </style>
  </defs>
  <path id="Фигура_5" data-name="Фигура 5" class="cls-1" d="M1413,749.736v19.1a3.323,3.323,0,0,1-1.49,2.593l-9.02,5.219a3.4,3.4,0,0,1-2.98,0l-9.02-5.219a3.323,3.323,0,0,1-1.49-2.593v-19.1a1.734,1.734,0,0,1,1.71-1.739h20.54A1.768,1.768,0,0,1,1413,749.736Zm-5.92,13.226v2.067h-12.13v-2.067h-2.04v4.1h16.17v-4.1h-2Zm-1.04-4.1H1403V752.69h-4.01v6.169h-3.04l5.05,5.12Z" transform="translate(-1389 -748)"/>
</svg>
