<svg xmlns="http://www.w3.org/2000/svg" width="14" height="17" viewBox="0 0 14 17">
  <defs>
    <style>
      .cls-1 {
        fill: #fff;
        fill-rule: evenodd;
      }
    </style>
  </defs>
  <path id="Фигура_21" data-name="Фигура 21" class="cls-1" d="M1652.96,74.637l-1.01-3.346a1.041,1.041,0,0,0-1.02-.753H1649c-0.4.7-.79,1.379-1.1,1.915a2.2,2.2,0,0,1-3.81.018c-0.33-.554-0.72-1.235-1.12-1.933h-1.89a1.089,1.089,0,0,0-1.03.753l-1,3.346a1.056,1.056,0,0,0,1.02,1.36h11.85A1.064,1.064,0,0,0,1652.96,74.637Zm-7.61-2.9a0.738,0.738,0,0,0,1.27,0c1.03-1.772,2.96-5.136,3.48-6.1a4.35,4.35,0,0,0,0-4.116,4.6,4.6,0,0,0-8.23,4.116C1642.38,66.6,1644.32,69.967,1645.35,71.739Zm0.64-10.146a1.986,1.986,0,1,1-1.99,1.985A1.986,1.986,0,0,1,1645.99,61.592Z" transform="translate(-1639 -59)"/>
</svg>
