<svg xmlns="http://www.w3.org/2000/svg" width="14" height="17"><path data-name="Фигура 21" d="M13.96 15.637l-1.01-3.346a1.041 1.041 0 00-1.02-.753H10c-.4.7-.79 1.379-1.1 1.915a2.2 2.2 0 01-3.81.018c-.33-.554-.72-1.235-1.12-1.933H2.08a1.089 1.089 0 00-1.03.753l-1 3.346a1.056 1.056 0 001.02 1.36h11.85a1.064 1.064 0 001.04-1.36zm-7.61-2.9a.738.738 0 001.27 0c1.03-1.772 2.96-5.136 3.48-6.1a4.35 4.35 0 000-4.116 4.6 4.6 0 00-8.23 4.116c.51.963 2.45 4.33 3.48 6.102zm.64-10.146A1.986 1.986 0 115 4.576a1.986 1.986 0 011.99-1.984z" fill="#fff" fill-rule="evenodd"/></svg>