<svg xmlns="http://www.w3.org/2000/svg" width="58" height="58" viewBox="0 0 58 58">
  <defs>
    <style>
      .cls-1 {
        fill: #ff4713;
        fill-rule: evenodd;
      }
    </style>
  </defs>
  <path id="Фигура_9" data-name="Фигура 9" class="cls-1" d="M547,11853h-6v22h2v-4h4v-18Zm4,4h2v14h2v-17a0.972,0.972,0,0,0-1-1h-1v2h-2v-2h-2v18h2v-14Zm28,4v4h18a2,2,0,0,0,0-4H579Zm0,6v4h14a2,2,0,0,0,0-4H579Zm-2-7.6a2.539,2.539,0,0,0-.708-1.7l1.415-1.4a4.315,4.315,0,0,1,1.252,2.7H593a2,2,0,0,0,0-4H575.414l-1.536,1.5a4.781,4.781,0,0,1-3.535,1.5H568v-2h2.343a2.873,2.873,0,0,0,2.121-.9l2.122-2.1H582a2.975,2.975,0,0,0,3-3,0.972,0.972,0,0,0-1-1H565.959a6.954,6.954,0,0,0-4.556,1.7l-4.4,3.8v16.5h20v-11.6Zm12,25.6a13.162,13.162,0,0,1,4,.7V11873H545v24h32A12.024,12.024,0,0,1,589,11885Zm-5-9h6v4h-6v-4Zm-10,0h6v4h-6v-4Zm-10,0h6v4h-6v-4Zm-1,7h2v2h-2v-2Zm-15-7h12v10H548v-10Zm-1,13h2v2h-2v-2Zm28,6H547v-2h28v2Zm0-4H551v-2h24v2Zm-8-6v-2h14v2H567Zm22,2a10,10,0,1,0,10,10A10.02,10.02,0,0,0,589,11887Zm-3,12a2,2,0,0,1-4,0v-4a2,2,0,0,1,4,0v4Zm3-2a1,1,0,1,1,1,1A0.971,0.971,0,0,1,589,11897Zm1.071,6.6,4-10,1.857,0.8-4,10ZM597,11900a1,1,0,0,1-2,0A1,1,0,0,1,597,11900Z" transform="translate(-541 -11849)"/>
</svg>
