<svg xmlns="http://www.w3.org/2000/svg" width="64" height="56"><path data-name="Фигура 10" d="M18.19 24h.2a3.14 3.14 0 010-2.2.2.2 0 00-.2-.1 1.153 1.153 0 00-1.15 1.2 1.131 1.131 0 001.15 1.1zm43.879 7.9a1.1 1.1 0 00-1.142-1h-1.334v3.8a3.345 3.345 0 01.539 1.6l1.15 13.7a3.447 3.447 0 01-3.147 3.7h-52a3.408 3.408 0 01-3.448-3.4c0-.1 0-.2.013-.3l1.15-13.7a3.375 3.375 0 01.537-1.6v-3.8H3.053a1.1 1.1 0 00-1.142 1L-.01 54.8A1.155 1.155 0 001.036 56h61.81a1.126 1.126 0 001.146-1.1.215.215 0 000-.1zM13.59 28.6h36.8a1.153 1.153 0 001.151-1.2V14.9h-39.1v12.5a1.152 1.152 0 001.149 1.2zm35.652-2.3h-10.35V24h10.35v2.3zm-4.6-6.9h4.6v2.3h-4.6v-2.3zm-8.051 0h6.9v2.3h-6.9v-2.3zm-8.05 0h6.9v2.3h-6.9v-2.3zm0 4.6h9.2v2.3h-9.2V24zM18.19 19.4a3.474 3.474 0 011.717.5 3.533 3.533 0 011.733-.5 3.45 3.45 0 110 6.9 3.533 3.533 0 01-1.733-.5 3.435 3.435 0 11-1.717-6.4zm3.45 2.3a1.153 1.153 0 011.15 1.2 1.151 1.151 0 01-2.3 0 1.153 1.153 0 011.15-1.2zm29.9-12.6A1.131 1.131 0 0050.389 8h-36.8a1.13 1.13 0 00-1.15 1.1v1.2h39.1V9.1zM6.134 51.4h51.708a1.127 1.127 0 001.147-1.1.215.215 0 000-.1l-.636-7.6a3.53 3.53 0 01-2.209.8h-48.3a3.532 3.532 0 01-2.209-.8l-.636 7.6a1.1 1.1 0 001.045 1.2h.1zM29.688 48h4.6v2.3h-4.6V48zM7.836 41.1h48.3a1.131 1.131 0 001.15-1.1V1.1a1.131 1.131 0 00-1.15-1.1h-48.3a1.131 1.131 0 00-1.15 1.1V40a1.131 1.131 0 001.153 1.1zm14.951-2.2h-2.3v-2.3h2.3v2.3zm17.252 0h-16.1v-2.3h16.1v2.3zm3.45 0h-2.3v-2.3h2.3v2.3zM10.136 9.1a3.412 3.412 0 013.451-3.4h36.8a3.412 3.412 0 013.451 3.4v18.3a3.5 3.5 0 01-3.451 3.5h-36.8a3.5 3.5 0 01-3.451-3.5V9.1z" fill="#ff4713" fill-rule="evenodd"/></svg>