<svg xmlns="http://www.w3.org/2000/svg" width="64" height="56" viewBox="0 0 64 56">
  <defs>
    <style>
      .cls-1 {
        fill: #ff4713;
        fill-rule: evenodd;
      }
    </style>
  </defs>
  <path id="Фигура_10" data-name="Фигура 10" class="cls-1" d="M946.19,11871h0.2a3.14,3.14,0,0,1,0-2.2,0.2,0.2,0,0,0-.2-0.1,1.153,1.153,0,0,0-1.15,1.2A1.131,1.131,0,0,0,946.19,11871Zm43.879,7.9a1.1,1.1,0,0,0-1.142-1h-1.334v3.8a3.345,3.345,0,0,1,.539,1.6l1.15,13.7a3.447,3.447,0,0,1-3.147,3.7h-52a3.408,3.408,0,0,1-3.448-3.4c0-.1,0-0.2.013-0.3l1.15-13.7a3.375,3.375,0,0,1,.537-1.6v-3.8h-1.334a1.1,1.1,0,0,0-1.142,1l-1.921,22.9a1.155,1.155,0,0,0,1.046,1.2h61.81a1.126,1.126,0,0,0,1.146-1.1,0.215,0.215,0,0,0,0-.1Zm-48.479-3.3h36.8a1.153,1.153,0,0,0,1.151-1.2v-12.5h-39.1v12.5A1.152,1.152,0,0,0,941.59,11875.6Zm35.652-2.3h-10.35v-2.3h10.35v2.3Zm-4.6-6.9h4.6v2.3h-4.6v-2.3Zm-8.051,0h6.9v2.3h-6.9v-2.3Zm-8.05,0h6.9v2.3h-6.9v-2.3Zm0,4.6h9.2v2.3h-9.2v-2.3Zm-10.351-4.6a3.474,3.474,0,0,1,1.717.5,3.533,3.533,0,0,1,1.733-.5,3.45,3.45,0,1,1,0,6.9,3.533,3.533,0,0,1-1.733-.5A3.435,3.435,0,1,1,946.19,11866.4Zm3.45,2.3a1.153,1.153,0,0,1,1.15,1.2,1.151,1.151,0,0,1-2.3,0A1.153,1.153,0,0,1,949.64,11868.7Zm29.9-12.6a1.131,1.131,0,0,0-1.151-1.1h-36.8a1.13,1.13,0,0,0-1.15,1.1v1.2h39.1v-1.2Zm-45.406,42.3h51.708a1.127,1.127,0,0,0,1.147-1.1,0.215,0.215,0,0,0,0-.1l-0.636-7.6a3.53,3.53,0,0,1-2.209.8h-48.3a3.532,3.532,0,0,1-2.209-.8l-0.636,7.6a1.1,1.1,0,0,0,1.045,1.2h0.1Zm23.554-3.4h4.6v2.3h-4.6v-2.3Zm-21.852-6.9h48.3a1.131,1.131,0,0,0,1.15-1.1v-38.9a1.131,1.131,0,0,0-1.15-1.1h-48.3a1.131,1.131,0,0,0-1.15,1.1v38.9A1.131,1.131,0,0,0,935.839,11888.1Zm14.951-2.2h-2.3v-2.3h2.3v2.3Zm17.252,0h-16.1v-2.3h16.1v2.3Zm3.45,0h-2.3v-2.3h2.3v2.3Zm-33.353-29.8a3.412,3.412,0,0,1,3.451-3.4h36.8a3.412,3.412,0,0,1,3.451,3.4v18.3a3.5,3.5,0,0,1-3.451,3.5h-36.8a3.5,3.5,0,0,1-3.451-3.5v-18.3Z" transform="translate(-928 -11847)"/>
</svg>
