<svg xmlns="http://www.w3.org/2000/svg" width="54" height="72"><path data-name="Фигура 14" d="M37.41 62a1.935 1.935 0 00-1.86 2v6.1a1.911 1.911 0 001.86 1.9h14.75a1.909 1.909 0 001.85-1.9V64a1.933 1.933 0 00-1.85-2H37.41zm13.31 3.6a1.337 1.337 0 011.4 1.4 1.385 1.385 0 11-2.76 0 1.346 1.346 0 011.36-1.4zM18.87 48.1h11.55a1 1 0 00.94-1 .942.942 0 00-.94-1h-7.26a3.054 3.054 0 010-6.1h15.22a11.213 11.213 0 0110.35 7.4l4.11 11.1a.927.927 0 01-.53 1.2.442.442 0 01-.34.1H36.23a6.214 6.214 0 00-5.14-3H16.65a7.292 7.292 0 01-4.84-1.9L1.09 45.2a3.365 3.365 0 01-.33-4.6 2.938 2.938 0 014.14-.5l8.71 6.2a8.526 8.526 0 005.26 1.8zm6.46-40.6a5.642 5.642 0 015.09 1.4 7.105 7.105 0 00-2.79 2.4l-1.01-1a1.211 1.211 0 00-.77-.4 5.893 5.893 0 005.17 3.7 5.861 5.861 0 01-.11 1.1 6.994 6.994 0 01-6.06-4.3 1.226 1.226 0 00.09 1.6l1.62 1.7a7.506 7.506 0 00.98 5.9 6.165 6.165 0 01-3.3-.3l-.64 1.5h-1.47l-.06 1.3-1.25.1-.06 1.3H19.5l-.05 1.3-1.26.1-.06 1.3h-1.25l-.06 1.3-1.58.1-.35.3a1.644 1.644 0 01-2.54 0l-.56-.6a1.872 1.872 0 010-2.6l8.96-9.4a6.217 6.217 0 013.38-7.4A7.29 7.29 0 0130.67 0a7.161 7.161 0 017.53 6.8 7.82 7.82 0 01-.44 3.2 4.573 4.573 0 00-.92-.7 6.342 6.342 0 00-3.81-7.9 5.887 5.887 0 00-7.53 4 6.927 6.927 0 00-.3 2.1h.13zm7.77 28.6h-.79a1.823 1.823 0 01-1.8-1.9V21a6.353 6.353 0 01-3.02-6.3 7.13 7.13 0 004.51.9h3.51a1.2 1.2 0 000-2.4h-3.24a6.221 6.221 0 01-3.65-1.4 5.8 5.8 0 018.27-1.2 6.423 6.423 0 011.17 8.7 5.78 5.78 0 01-2.5 2l.59 1.5-1.02 1.1.86 1-.86 1 .86.9-.86 1 .86.9-.86 1 .86.9-.86 1 .86.9-1.09 1.2v.5a1.817 1.817 0 01-1.8 1.9z" fill="#ff4713" fill-rule="evenodd"/></svg>