<svg xmlns="http://www.w3.org/2000/svg" width="54" height="72" viewBox="0 0 54 72">
  <defs>
    <style>
      .cls-1 {
        fill: #ff4713;
        fill-rule: evenodd;
      }
    </style>
  </defs>
  <path id="Фигура_14" data-name="Фигура 14" class="cls-1" d="M1360.41,11903a1.935,1.935,0,0,0-1.86,2h0v6.1a1.911,1.911,0,0,0,1.86,1.9h14.75a1.909,1.909,0,0,0,1.85-1.9v-6.1a1.933,1.933,0,0,0-1.85-2h-14.75Zm13.31,3.6a1.337,1.337,0,0,1,1.4,1.4h0a1.385,1.385,0,1,1-2.76,0h0A1.346,1.346,0,0,1,1373.72,11906.6Zm-31.85-17.5h11.55a1,1,0,0,0,.94-1,0.942,0.942,0,0,0-.94-1h-7.26a3.054,3.054,0,0,1,0-6.1h15.22a11.213,11.213,0,0,1,10.35,7.4l4.11,11.1a0.927,0.927,0,0,1-.53,1.2,0.442,0.442,0,0,1-.34.1h-15.74a6.214,6.214,0,0,0-5.14-3h-14.44a7.292,7.292,0,0,1-4.84-1.9l-10.72-9.7a3.365,3.365,0,0,1-.33-4.6,2.938,2.938,0,0,1,4.14-.5l8.71,6.2a8.526,8.526,0,0,0,5.26,1.8h0Zm6.46-40.6a5.642,5.642,0,0,1,5.09,1.4,7.105,7.105,0,0,0-2.79,2.4l-1.01-1a1.211,1.211,0,0,0-.77-0.4,5.893,5.893,0,0,0,5.17,3.7,5.861,5.861,0,0,1-.11,1.1,6.994,6.994,0,0,1-6.06-4.3,1.226,1.226,0,0,0,.09,1.6l1.62,1.7a7.506,7.506,0,0,0,.98,5.9,6.165,6.165,0,0,1-3.3-.3l-0.64,1.5h-1.47l-0.06,1.3-1.25.1-0.06,1.3h-1.26l-0.05,1.3-1.26.1-0.06,1.3h-1.25l-0.06,1.3-1.58.1-0.35.3a1.644,1.644,0,0,1-2.54,0h0l-0.56-.6a1.872,1.872,0,0,1,0-2.6h0l8.96-9.4a6.217,6.217,0,0,1,3.38-7.4,7.29,7.29,0,0,1,6.54-7.9,7.161,7.161,0,0,1,7.53,6.8,7.82,7.82,0,0,1-.44,3.2,4.573,4.573,0,0,0-.92-0.7,6.342,6.342,0,0,0-3.81-7.9,5.887,5.887,0,0,0-7.53,4,6.927,6.927,0,0,0-.3,2.1h0.13Zm7.77,28.6h-0.79a1.823,1.823,0,0,1-1.8-1.9h0V11862a6.353,6.353,0,0,1-3.02-6.3,7.13,7.13,0,0,0,4.51.9h3.51a1.2,1.2,0,0,0,0-2.4h-3.24a6.221,6.221,0,0,1-3.65-1.4,5.8,5.8,0,0,1,8.27-1.2,6.423,6.423,0,0,1,1.17,8.7,5.78,5.78,0,0,1-2.5,2l0.59,1.5-1.02,1.1,0.86,1-0.86,1,0.86,0.9-0.86,1,0.86,0.9-0.86,1,0.86,0.9-0.86,1,0.86,0.9-1.09,1.2v0.5a1.817,1.817,0,0,1-1.8,1.9h0Z" transform="translate(-1323 -11841)"/>
</svg>
