<svg xmlns="http://www.w3.org/2000/svg" width="54" height="62" viewBox="0 0 54 62">
  <defs>
    <style>
      .cls-1 {
        fill: #ff4713;
        fill-rule: evenodd;
      }
    </style>
  </defs>
  <path id="Фигура_11" data-name="Фигура 11" class="cls-1" d="M596.627,12206.4l-7.241-14.6-43.148,21.6,0.492,1h3.948a0.587,0.587,0,0,0,.29-0.2l8.854-4.4a1.187,1.187,0,0,1,1.619.5h0l2.024,4.1h4.116l-0.114-.2,22.269-11.2,0.675,1.4-20.076,10h17.612a2.7,2.7,0,0,1,.891.1l6.148-3.1A3.748,3.748,0,0,0,596.627,12206.4Zm-32.1,1.8,22.27-11.1,0.674,1.3-22.269,11.2Zm2.18,4.5-0.675-1.4,22.269-11.2,0.675,1.4Zm19.847-26.6a3.65,3.65,0,0,0-4.949-1.7h0l-36.548,18.3a3.756,3.756,0,0,0-1.662,5h0l1.073,2.2,43.162-21.7Zm5.094,33.4v2.4h-48.2v-2.4a3.66,3.66,0,0,1,3.691-3.7h40.813a3.667,3.667,0,0,1,3.7,3.7h0Zm-48.2,6.4v16.4a3.724,3.724,0,0,0,3.691,3.7h40.813a3.731,3.731,0,0,0,3.7-3.7h0v-16.4h-48.2Zm6.33,12.2h-2.112a1.034,1.034,0,0,1-1-1v-1.8h3.111v2.8Zm0-3.4h-3.111v-2.3h3.111v2.3Zm0-2.9h-3.111v-1.8a1.035,1.035,0,0,1,1-1h2.112v2.8Zm4.474,6.2h-3.914v-2.7h3.914v2.7Zm0-3.3h-3.914v-2.3h3.914v2.3Zm0-2.9h-3.914v-2.8h3.914v2.8Zm3.624,5.3a1.035,1.035,0,0,1-1,1h-2.085v-2.8h3.084v1.8Zm0-2.4h-3.1v-2.3h3.1v2.3Zm0-2.9h-3.1v-2.8h2.105a1.035,1.035,0,0,1,1,1h0v1.8Zm29.105,5.8H562.11v-1.5H587Zm0-3.2H562.11v-1.5H587Zm0-3.4H562.11v-1.5H587Z" transform="translate(-543 -12184)"/>
</svg>
