<svg xmlns="http://www.w3.org/2000/svg" width="54" height="62"><path data-name="Фигура 11" d="M53.627 22.4L46.386 7.8 3.238 29.4l.492 1h3.948a.587.587 0 00.29-.2l8.854-4.4a1.187 1.187 0 011.619.5l2.024 4.1h4.116l-.114-.2L46.736 19l.675 1.4-20.076 10h17.612a2.7 2.7 0 01.891.1l6.148-3.1a3.748 3.748 0 001.641-5zm-32.1 1.8l22.27-11.1.674 1.3-22.269 11.2zm2.18 4.5l-.675-1.4 22.269-11.2.675 1.4zM43.554 2.1A3.65 3.65 0 0038.605.4L2.057 18.7a3.756 3.756 0 00-1.662 5l1.073 2.2L44.63 4.2zm5.094 33.4v2.4H.448v-2.4a3.66 3.66 0 013.691-3.7h40.813a3.667 3.667 0 013.7 3.7zm-48.2 6.4v16.4A3.724 3.724 0 004.139 62h40.813a3.731 3.731 0 003.7-3.7V41.9H.452zm6.33 12.2H4.666a1.034 1.034 0 01-1-1v-1.8h3.111v2.8zm0-3.4H3.667v-2.3h3.111v2.3zm0-2.9H3.667V46a1.035 1.035 0 011-1h2.112v2.8zm4.474 6.2H7.338v-2.7h3.914V54zm0-3.3H7.338v-2.3h3.914v2.3zm0-2.9H7.338V45h3.914v2.8zm3.624 5.3a1.035 1.035 0 01-1 1h-2.085v-2.8h3.084v1.8zm0-2.4h-3.1v-2.3h3.1v2.3zm0-2.9h-3.1V45h2.105a1.035 1.035 0 011 1v1.8zm29.105 5.8H19.11v-1.5H44zm0-3.2H19.11v-1.5H44zm0-3.4H19.11v-1.5H44z" fill="#ff4713" fill-rule="evenodd"/></svg>