<svg xmlns="http://www.w3.org/2000/svg" width="57" height="57"><path data-name="Фигура 12" d="M5.084 0a1.045 1.045 0 00-1.018 1v3.1h10.178V0h-9.16zm11.2 0v11.3l1.47-1a1.139 1.139 0 011.13 0l1.471 1V0H16.28zm6.106 0v4.1h10.178V1a1.045 1.045 0 00-1.018-1h-9.16zM4.07 6.1v2h10.177v-2H4.066zm18.32 0v2h10.178v-2H22.386zM0 10.2v24.4h36.639V10.2H34.6v17.3a3 3 0 01-3.054 3H5.084a3 3 0 01-3.054-3V10.2H0zm4.07 0v17.3a1.045 1.045 0 001.018 1h26.463a1.044 1.044 0 001.017-1V10.2H22.387v3a.981.981 0 01-1.019 1 1.067 1.067 0 01-.564-.1l-2.488-1.7-2.489 1.7a1 1 0 01-1.412-.3 1.234 1.234 0 01-.171-.6v-3H4.066zm24.427 7.1h2.036v2h-2.036v-2zm10.177 1v12.2h17.692l-6.107-12.2H38.67zm-10.177 3.1h2.036v4a1.066 1.066 0 01-1.017 1.1H25.44v-2.1h3.053v-3zm10.177 11.2v18.3h.083a7.12 7.12 0 0114.085 0h4.152V32.6H38.67zm2.036 2h4.071v2H40.71v-2zM0 36.6v4.1h36.64v-4.1H0zm0 6.1v8.2h4.152a7.12 7.12 0 0114.085 0h18.4v-8.2H0zm10.983 4.1a5.2 5.2 0 10.212 0h-.212zm34.6 0a5.2 5.2 0 10.211 0h-.211zm-34.393 2a3.085 3.085 0 013.054 3.1 3.054 3.054 0 11-3.054-3.1zm34.606 0a3.085 3.085 0 013.053 3.1 3.054 3.054 0 11-3.053-3.1zm-34.647 2.1a1 1 0 00-.956 1.1 1.011 1.011 0 002.016-.1.98.98 0 00-1.018-1h-.042zm34.6 0a1 1 0 00-.956 1.1 1.01 1.01 0 101-1.1h-.042z" fill="#ff4713" fill-rule="evenodd"/></svg>