<svg xmlns="http://www.w3.org/2000/svg" width="57" height="57" viewBox="0 0 57 57">
  <defs>
    <style>
      .cls-1 {
        fill: #ff4713;
        fill-rule: evenodd;
      }
    </style>
  </defs>
  <path id="Фигура_12" data-name="Фигура 12" class="cls-1" d="M937.084,12187a1.045,1.045,0,0,0-1.018,1v3.1h10.178v-4.1h-9.16Zm11.2,0v11.3l1.47-1a1.139,1.139,0,0,1,1.13,0l1.471,1V12187H948.28Zm6.106,0v4.1h10.178v-3.1a1.045,1.045,0,0,0-1.018-1h-9.16Zm-18.32,6.1v2h10.177v-2H936.066Zm18.32,0v2h10.178v-2H954.386Zm-22.39,4.1v24.4h36.639v-24.4H966.6v17.3a3,3,0,0,1-3.054,3H937.084a3,3,0,0,1-3.054-3h0v-17.3H932Zm4.07,0v17.3a1.045,1.045,0,0,0,1.018,1h26.463a1.044,1.044,0,0,0,1.017-1v-17.3H954.387v3a0.981,0.981,0,0,1-1.019,1,1.067,1.067,0,0,1-.564-0.1l-2.488-1.7-2.489,1.7a1,1,0,0,1-1.412-.3,1.234,1.234,0,0,1-.171-0.6v-3H936.066Zm24.427,7.1h2.036v2h-2.036v-2Zm10.177,1v12.2h17.692l-6.107-12.2H970.67Zm-10.177,3.1h2.036v4a1.066,1.066,0,0,1-1.017,1.1H957.44v-2.1h3.053v-3Zm10.177,11.2v18.3h0.083a7.12,7.12,0,0,1,14.085,0h4.152v-18.3H970.67Zm2.036,2h4.071v2h-4.071v-2Zm-40.71,2v4.1h36.64v-4.1H932Zm0,6.1v8.2h4.152a7.12,7.12,0,0,1,14.085,0h18.4v-8.2H932Zm10.983,4.1a5.2,5.2,0,1,0,.212,0h-0.212Zm34.6,0a5.2,5.2,0,1,0,.211,0h-0.211Zm-34.393,2a3.085,3.085,0,0,1,3.054,3.1h0a3.054,3.054,0,1,1-3.054-3.1h0Zm34.606,0a3.085,3.085,0,0,1,3.053,3.1h0a3.054,3.054,0,1,1-3.053-3.1h0Zm-34.647,2.1a1,1,0,0,0-.956,1.1,1.011,1.011,0,0,0,2.016-.1h0a0.98,0.98,0,0,0-1.018-1h-0.042Zm34.6,0a1,1,0,0,0-.956,1.1,1.01,1.01,0,1,0,1-1.1h-0.042Z" transform="translate(-932 -12187)"/>
</svg>
