<svg xmlns="http://www.w3.org/2000/svg" width="66" height="45" viewBox="0 0 66 45">
  <defs>
    <style>
      .cls-1 {
        fill: #ff4713;
        fill-rule: evenodd;
      }
    </style>
  </defs>
  <path id="Фигура_13" data-name="Фигура 13" class="cls-1" d="M1320.36,12235.6H1318v2.4h63.64v-2.4h-61.28Zm14.14-23.7h2.36v2.4h-2.36v-2.4Zm0-9.4h2.36v2.3h-2.36v-2.3Zm30.64,3.5h8.25v-8.3h-47.14v30.8h47.14v-5.9h-8.25a1.168,1.168,0,0,1-1.18-1.2v-14.2A1.234,1.234,0,0,1,1365.14,12206Zm-25.93,19a1.225,1.225,0,0,1-1.17,1.2h-4.72a1.234,1.234,0,0,1-1.18-1.2v-4.8a1.148,1.148,0,0,1,1.18-1.1h4.72a1.139,1.139,0,0,1,1.17,1.1v4.8Zm0-9.5a1.16,1.16,0,0,1-1.17,1.2h-4.72a1.168,1.168,0,0,1-1.18-1.2v-4.7a1.168,1.168,0,0,1,1.18-1.2h4.72a1.16,1.16,0,0,1,1.17,1.2v4.7Zm0-9.5a1.16,1.16,0,0,1-1.17,1.2h-4.72a1.168,1.168,0,0,1-1.18-1.2v-4.7a1.168,1.168,0,0,1,1.18-1.2h4.72a1.16,1.16,0,0,1,1.17,1.2v4.7Zm16.5,20.2h-14.14v-2.4h14.14v2.4Zm0-9.5h-14.14v-2.4h14.14v2.4Zm0-9.5h-14.14v-2.4h14.14v2.4Zm10.61,13H1384v-7.1h-17.68v7.1Zm10.61-4.7h3.53v2.4h-3.53v-2.4Zm-8.25,0h5.89v2.4h-5.89v-2.4Zm-34.18,5.9h2.36v2.4h-2.36v-2.4Zm43.61,1.2h-2.36v7.1a1.168,1.168,0,0,1-1.18,1.2h-49.5a1.168,1.168,0,0,1-1.18-1.2v-33.1a1.168,1.168,0,0,1,1.18-1.2h49.5a1.168,1.168,0,0,1,1.18,1.2v9.4h2.36v-13h-56.57v40.3h56.57v-10.7Zm-11.79-14.2H1384v2.4h-17.68v-2.4Z" transform="translate(-1318 -12193)"/>
</svg>
