<svg xmlns="http://www.w3.org/2000/svg" width="66" height="45"><path data-name="Фигура 13" d="M2.36 42.6H0V45h63.64v-2.4H2.36zM16.5 18.9h2.36v2.4H16.5v-2.4zm0-9.4h2.36v2.3H16.5V9.5zM47.14 13h8.25V4.7H8.25v30.8h47.14v-5.9h-8.25a1.168 1.168 0 01-1.18-1.2V14.2a1.234 1.234 0 011.18-1.2zM21.21 32a1.225 1.225 0 01-1.17 1.2h-4.72a1.234 1.234 0 01-1.18-1.2v-4.8a1.148 1.148 0 011.18-1.1h4.72a1.139 1.139 0 011.17 1.1V32zm0-9.5a1.16 1.16 0 01-1.17 1.2h-4.72a1.168 1.168 0 01-1.18-1.2v-4.7a1.168 1.168 0 011.18-1.2h4.72a1.16 1.16 0 011.17 1.2v4.7zm0-9.5a1.16 1.16 0 01-1.17 1.2h-4.72a1.168 1.168 0 01-1.18-1.2V8.3a1.168 1.168 0 011.18-1.2h4.72a1.16 1.16 0 011.17 1.2V13zm16.5 20.2H23.57v-2.4h14.14v2.4zm0-9.5H23.57v-2.4h14.14v2.4zm0-9.5H23.57v-2.4h14.14v2.4zm10.61 13H66v-7.1H48.32v7.1zm10.61-4.7h3.53v2.4h-3.53v-2.4zm-8.25 0h5.89v2.4h-5.89v-2.4zM16.5 28.4h2.36v2.4H16.5v-2.4zm43.61 1.2h-2.36v7.1a1.168 1.168 0 01-1.18 1.2H7.07a1.168 1.168 0 01-1.18-1.2V3.6a1.168 1.168 0 011.18-1.2h49.5a1.168 1.168 0 011.18 1.2V13h2.36V0H3.54v40.3h56.57V29.6zM48.32 15.4H66v2.4H48.32v-2.4z" fill="#ff4713" fill-rule="evenodd"/></svg>